<svg width="137" height="27" viewBox="0 0 137 27" xmlns="http://www.w3.org/2000/svg">
    <g fill="none" fill-rule="evenodd">
        <path d="M36.35 1.5c2.95 0 5.435.762 7.453 2.285 2.019 1.523 3.307 3.623 3.866 6.3h-6.288c-.31-1.108-.924-1.977-1.84-2.608-.916-.63-1.995-.946-3.237-.946-1.646 0-3.043.615-4.192 1.846-1.149 1.23-1.723 2.938-1.723 5.123s.574 3.892 1.723 5.123c1.149 1.23 2.546 1.846 4.192 1.846 1.242 0 2.321-.307 3.237-.923.916-.615 1.53-1.492 1.84-2.63h6.288c-.559 2.584-1.847 4.66-3.866 6.23-2.018 1.57-4.502 2.354-7.452 2.354-2.36 0-4.44-.508-6.242-1.523a11.138 11.138 0 0 1-4.262-4.246c-1.04-1.816-1.56-3.893-1.56-6.231s.52-4.415 1.56-6.23a11.138 11.138 0 0 1 4.262-4.247C31.91 2.008 33.991 1.5 36.351 1.5zM22.036 2.564v22.404H16.69l.012-3.776c-.915 1.257-1.868 2.368-3.256 3.241-1.388.874-2.877 1.067-4.857 1.067-2.612 0-4.794-.873-6.475-2.667C.724 21.136 0 18.538 0 15.327V2.583h5.933v12.293c0 1.804.211 3.19 1.038 4.224.755 1.013 2.04 1.64 3.797 1.64 1.758 0 2.85-.687 3.757-1.64 1.191-1.335 1.58-2.87 1.57-4.8V9.88h-1.798a.142.142 0 0 1-.13-.085.153.153 0 0 1 .07-.194c1.942-.85 3.403-1.824 4.383-2.922 1.089-1.219 1.831-2.59 2.227-4.115h1.188zm41.332-.613c2.594 0 4.764.873 6.475 2.667C71.226 6.315 72 8.873 72 12.084v12.8h-5.935V12.618c.002-1.802-.286-3.233-1.08-4.267-.784-1.013-2.013-1.524-3.777-1.6-1.544.076-2.887.648-3.777 1.6-1.204 1.335-1.693 3.029-1.693 4.833v11.734l-5.934-.004V2.47l5.469.014v3.734c.9-1.257 1.91-2.31 3.237-3.2 1.313-.676 2.868-1.067 4.857-1.067z" fill="#0C2B41" fill-rule="nonzero"/>
        <path d="M133.5 0a3 3 0 0 1 3 3v21a3 3 0 0 1-3 3h-51a3 3 0 0 1-3-3V3a3 3 0 0 1 3-3h51zM99.201 5.3h-2.919L89.835 20h2.919l1.302-3.108h7.182L102.54 20h3.024L99.201 5.3zm14.175 0h-6.027V20h2.814v-4.326h3.213c1.848 0 3.28-.465 4.294-1.396 1.016-.931 1.523-2.237 1.523-3.917 0-1.61-.507-2.856-1.522-3.738-.952-.827-2.27-1.266-3.953-1.318l-.342-.005zm10.962 0h-2.814V20h2.814V5.3zm-26.67 3.003 2.562 6.174h-5.166l2.604-6.174zm15.561-.546c1.064 0 1.88.224 2.447.672.567.448.85 1.12.85 2.016 0 .91-.283 1.596-.85 2.058-.567.462-1.383.693-2.447.693h-3.066V7.757h3.066z" fill="#07A6C5"/>
    </g>
</svg>
